<mxfile host="app.diagrams.net" modified="2023-04-28T07:41:47.210Z" agent="Mozilla/5.0 (Windows NT 10.0; WOW64) AppleWebKit/537.36 (KHTML, like Gecko) Chrome/108.0.5359.95 Safari/537.36" etag="daw5yAga5QkpagsOMsvE" version="21.2.3" type="github">
  <diagram name="第 1 页" id="TQq3zP2J2Zs_yPfLcd-N">
    <mxGraphModel dx="420" dy="222" grid="1" gridSize="10" guides="1" tooltips="1" connect="1" arrows="1" fold="1" page="1" pageScale="1" pageWidth="827" pageHeight="1169" math="0" shadow="0">
      <root>
        <mxCell id="0" />
        <mxCell id="1" parent="0" />
        <mxCell id="fYOLJ2JK0MwK6xJ_GKbu-5" style="edgeStyle=orthogonalEdgeStyle;rounded=0;orthogonalLoop=1;jettySize=auto;html=1;entryX=0.5;entryY=0;entryDx=0;entryDy=0;entryPerimeter=0;" parent="1" source="fYOLJ2JK0MwK6xJ_GKbu-3" target="fYOLJ2JK0MwK6xJ_GKbu-4" edge="1">
          <mxGeometry relative="1" as="geometry" />
        </mxCell>
        <mxCell id="fYOLJ2JK0MwK6xJ_GKbu-3" value="二次复判" style="strokeWidth=2;html=1;shape=mxgraph.flowchart.decision;whiteSpace=wrap;" parent="1" vertex="1">
          <mxGeometry x="340" y="110" width="100" height="100" as="geometry" />
        </mxCell>
        <mxCell id="fYOLJ2JK0MwK6xJ_GKbu-12" value="" style="edgeStyle=orthogonalEdgeStyle;rounded=0;orthogonalLoop=1;jettySize=auto;html=1;fontFamily=Helvetica;fontSize=12;fontColor=default;" parent="1" source="fYOLJ2JK0MwK6xJ_GKbu-4" target="fYOLJ2JK0MwK6xJ_GKbu-11" edge="1">
          <mxGeometry relative="1" as="geometry" />
        </mxCell>
        <mxCell id="fYOLJ2JK0MwK6xJ_GKbu-4" value="四张图，缺陷结构体" style="strokeWidth=2;html=1;shape=mxgraph.flowchart.start_1;whiteSpace=wrap;" parent="1" vertex="1">
          <mxGeometry x="320" y="250" width="140" height="60" as="geometry" />
        </mxCell>
        <mxCell id="fYOLJ2JK0MwK6xJ_GKbu-16" value="" style="edgeStyle=orthogonalEdgeStyle;rounded=0;orthogonalLoop=1;jettySize=auto;html=1;fontFamily=Helvetica;fontSize=12;fontColor=default;" parent="1" source="fYOLJ2JK0MwK6xJ_GKbu-11" target="fYOLJ2JK0MwK6xJ_GKbu-15" edge="1">
          <mxGeometry relative="1" as="geometry" />
        </mxCell>
        <mxCell id="fYOLJ2JK0MwK6xJ_GKbu-11" value="设置图片相对偏移量" style="whiteSpace=wrap;html=1;strokeWidth=2;" parent="1" vertex="1">
          <mxGeometry x="330" y="390" width="120" height="60" as="geometry" />
        </mxCell>
        <mxCell id="fYOLJ2JK0MwK6xJ_GKbu-18" value="" style="edgeStyle=orthogonalEdgeStyle;rounded=0;orthogonalLoop=1;jettySize=auto;html=1;fontFamily=Helvetica;fontSize=12;fontColor=default;entryX=0;entryY=0.5;entryDx=0;entryDy=0;" parent="1" source="fYOLJ2JK0MwK6xJ_GKbu-15" target="fYOLJ2JK0MwK6xJ_GKbu-20" edge="1">
          <mxGeometry relative="1" as="geometry">
            <mxPoint x="610" y="560" as="targetPoint" />
          </mxGeometry>
        </mxCell>
        <mxCell id="fYOLJ2JK0MwK6xJ_GKbu-19" value="遍历" style="edgeLabel;html=1;align=center;verticalAlign=middle;resizable=0;points=[];fontSize=12;fontFamily=Helvetica;fontColor=default;" parent="fYOLJ2JK0MwK6xJ_GKbu-18" vertex="1" connectable="0">
          <mxGeometry x="-0.1899" relative="1" as="geometry">
            <mxPoint as="offset" />
          </mxGeometry>
        </mxCell>
        <mxCell id="fYOLJ2JK0MwK6xJ_GKbu-15" value="遍历四张图和缺陷数据" style="rhombus;whiteSpace=wrap;html=1;strokeWidth=2;" parent="1" vertex="1">
          <mxGeometry x="315" y="520" width="150" height="80" as="geometry" />
        </mxCell>
        <mxCell id="fYOLJ2JK0MwK6xJ_GKbu-22" value="" style="edgeStyle=orthogonalEdgeStyle;rounded=0;orthogonalLoop=1;jettySize=auto;html=1;fontFamily=Helvetica;fontSize=12;fontColor=default;" parent="1" source="fYOLJ2JK0MwK6xJ_GKbu-20" target="fYOLJ2JK0MwK6xJ_GKbu-21" edge="1">
          <mxGeometry relative="1" as="geometry" />
        </mxCell>
        <mxCell id="fYOLJ2JK0MwK6xJ_GKbu-20" value="遍历缺陷数据" style="rhombus;whiteSpace=wrap;html=1;strokeColor=default;strokeWidth=2;fontFamily=Helvetica;fontSize=12;fontColor=default;fillColor=default;" parent="1" vertex="1">
          <mxGeometry x="610" y="520" width="130" height="80" as="geometry" />
        </mxCell>
        <mxCell id="fYOLJ2JK0MwK6xJ_GKbu-24" value="" style="edgeStyle=orthogonalEdgeStyle;rounded=0;orthogonalLoop=1;jettySize=auto;html=1;fontFamily=Helvetica;fontSize=12;fontColor=default;entryX=0.5;entryY=0;entryDx=0;entryDy=0;" parent="1" source="fYOLJ2JK0MwK6xJ_GKbu-21" target="fYOLJ2JK0MwK6xJ_GKbu-26" edge="1">
          <mxGeometry relative="1" as="geometry">
            <mxPoint x="885" y="690" as="targetPoint" />
          </mxGeometry>
        </mxCell>
        <mxCell id="fYOLJ2JK0MwK6xJ_GKbu-25" value="是" style="edgeLabel;html=1;align=center;verticalAlign=middle;resizable=0;points=[];fontSize=12;fontFamily=Helvetica;fontColor=default;" parent="fYOLJ2JK0MwK6xJ_GKbu-24" vertex="1" connectable="0">
          <mxGeometry x="-0.2921" y="1" relative="1" as="geometry">
            <mxPoint as="offset" />
          </mxGeometry>
        </mxCell>
        <mxCell id="fYOLJ2JK0MwK6xJ_GKbu-21" value="判断面积&amp;gt;0" style="rhombus;whiteSpace=wrap;html=1;strokeColor=default;strokeWidth=2;fontFamily=Helvetica;fontSize=12;fontColor=default;fillColor=default;" parent="1" vertex="1">
          <mxGeometry x="820" y="520" width="130" height="80" as="geometry" />
        </mxCell>
        <mxCell id="eVq_5vU3gRNtWS-iG7IX-2" value="" style="edgeStyle=orthogonalEdgeStyle;rounded=0;orthogonalLoop=1;jettySize=auto;html=1;fontFamily=Helvetica;fontSize=12;fontColor=default;entryX=0.5;entryY=0;entryDx=0;entryDy=0;" edge="1" parent="1" source="fYOLJ2JK0MwK6xJ_GKbu-26" target="eVq_5vU3gRNtWS-iG7IX-4">
          <mxGeometry relative="1" as="geometry">
            <mxPoint x="885" y="860" as="targetPoint" />
          </mxGeometry>
        </mxCell>
        <mxCell id="eVq_5vU3gRNtWS-iG7IX-3" value="是" style="edgeLabel;html=1;align=center;verticalAlign=middle;resizable=0;points=[];fontSize=12;fontFamily=Helvetica;fontColor=default;" vertex="1" connectable="0" parent="eVq_5vU3gRNtWS-iG7IX-2">
          <mxGeometry x="-0.2222" y="-1" relative="1" as="geometry">
            <mxPoint as="offset" />
          </mxGeometry>
        </mxCell>
        <mxCell id="fYOLJ2JK0MwK6xJ_GKbu-26" value="判断为破损" style="rhombus;whiteSpace=wrap;html=1;strokeColor=default;strokeWidth=2;fontFamily=Helvetica;fontSize=12;fontColor=default;fillColor=default;" parent="1" vertex="1">
          <mxGeometry x="845" y="690" width="80" height="80" as="geometry" />
        </mxCell>
        <mxCell id="eVq_5vU3gRNtWS-iG7IX-6" value="" style="edgeStyle=orthogonalEdgeStyle;rounded=0;orthogonalLoop=1;jettySize=auto;html=1;fontFamily=Helvetica;fontSize=12;fontColor=default;" edge="1" parent="1" source="eVq_5vU3gRNtWS-iG7IX-4" target="eVq_5vU3gRNtWS-iG7IX-5">
          <mxGeometry relative="1" as="geometry" />
        </mxCell>
        <mxCell id="eVq_5vU3gRNtWS-iG7IX-7" value="遍历" style="edgeLabel;html=1;align=center;verticalAlign=middle;resizable=0;points=[];fontSize=12;fontFamily=Helvetica;fontColor=default;" vertex="1" connectable="0" parent="eVq_5vU3gRNtWS-iG7IX-6">
          <mxGeometry x="0.0635" y="1" relative="1" as="geometry">
            <mxPoint as="offset" />
          </mxGeometry>
        </mxCell>
        <mxCell id="eVq_5vU3gRNtWS-iG7IX-18" value="" style="edgeStyle=orthogonalEdgeStyle;rounded=0;orthogonalLoop=1;jettySize=auto;html=1;fontFamily=Helvetica;fontSize=12;fontColor=default;" edge="1" parent="1" source="eVq_5vU3gRNtWS-iG7IX-4" target="eVq_5vU3gRNtWS-iG7IX-17">
          <mxGeometry relative="1" as="geometry" />
        </mxCell>
        <mxCell id="eVq_5vU3gRNtWS-iG7IX-19" value="遍历结束" style="edgeLabel;html=1;align=center;verticalAlign=middle;resizable=0;points=[];fontSize=12;fontFamily=Helvetica;fontColor=default;" vertex="1" connectable="0" parent="eVq_5vU3gRNtWS-iG7IX-18">
          <mxGeometry x="-0.2056" relative="1" as="geometry">
            <mxPoint as="offset" />
          </mxGeometry>
        </mxCell>
        <mxCell id="eVq_5vU3gRNtWS-iG7IX-4" value="遍历图片承重梁相对位置参数配置" style="rhombus;whiteSpace=wrap;html=1;strokeColor=default;strokeWidth=2;fontFamily=Helvetica;fontSize=12;fontColor=default;fillColor=default;" vertex="1" parent="1">
          <mxGeometry x="782.5" y="830" width="205" height="140" as="geometry" />
        </mxCell>
        <mxCell id="eVq_5vU3gRNtWS-iG7IX-9" value="" style="edgeStyle=orthogonalEdgeStyle;rounded=0;orthogonalLoop=1;jettySize=auto;html=1;fontFamily=Helvetica;fontSize=12;fontColor=default;" edge="1" parent="1" source="eVq_5vU3gRNtWS-iG7IX-5" target="eVq_5vU3gRNtWS-iG7IX-8">
          <mxGeometry relative="1" as="geometry" />
        </mxCell>
        <mxCell id="eVq_5vU3gRNtWS-iG7IX-11" value="是" style="edgeLabel;html=1;align=center;verticalAlign=middle;resizable=0;points=[];fontSize=12;fontFamily=Helvetica;fontColor=default;" vertex="1" connectable="0" parent="eVq_5vU3gRNtWS-iG7IX-9">
          <mxGeometry x="-0.3472" y="1" relative="1" as="geometry">
            <mxPoint as="offset" />
          </mxGeometry>
        </mxCell>
        <mxCell id="eVq_5vU3gRNtWS-iG7IX-16" value="" style="edgeStyle=orthogonalEdgeStyle;rounded=0;orthogonalLoop=1;jettySize=auto;html=1;fontFamily=Helvetica;fontSize=12;fontColor=default;" edge="1" parent="1" source="eVq_5vU3gRNtWS-iG7IX-5" target="eVq_5vU3gRNtWS-iG7IX-15">
          <mxGeometry relative="1" as="geometry" />
        </mxCell>
        <mxCell id="eVq_5vU3gRNtWS-iG7IX-5" value="判断缺陷面积70%在配置承重梁Box内" style="rhombus;whiteSpace=wrap;html=1;strokeColor=default;strokeWidth=2;fontFamily=Helvetica;fontSize=12;fontColor=default;fillColor=default;" vertex="1" parent="1">
          <mxGeometry x="1067.5" y="830" width="205" height="140" as="geometry" />
        </mxCell>
        <mxCell id="eVq_5vU3gRNtWS-iG7IX-21" value="" style="edgeStyle=orthogonalEdgeStyle;rounded=0;orthogonalLoop=1;jettySize=auto;html=1;fontFamily=Helvetica;fontSize=12;fontColor=default;" edge="1" parent="1" source="eVq_5vU3gRNtWS-iG7IX-8" target="eVq_5vU3gRNtWS-iG7IX-20">
          <mxGeometry relative="1" as="geometry" />
        </mxCell>
        <mxCell id="eVq_5vU3gRNtWS-iG7IX-22" value="是" style="edgeLabel;html=1;align=center;verticalAlign=middle;resizable=0;points=[];fontSize=12;fontFamily=Helvetica;fontColor=default;" vertex="1" connectable="0" parent="eVq_5vU3gRNtWS-iG7IX-21">
          <mxGeometry x="-0.1569" y="-2" relative="1" as="geometry">
            <mxPoint as="offset" />
          </mxGeometry>
        </mxCell>
        <mxCell id="eVq_5vU3gRNtWS-iG7IX-24" value="" style="edgeStyle=orthogonalEdgeStyle;rounded=0;orthogonalLoop=1;jettySize=auto;html=1;fontFamily=Helvetica;fontSize=12;fontColor=default;" edge="1" parent="1" source="eVq_5vU3gRNtWS-iG7IX-8" target="eVq_5vU3gRNtWS-iG7IX-23">
          <mxGeometry relative="1" as="geometry" />
        </mxCell>
        <mxCell id="eVq_5vU3gRNtWS-iG7IX-25" value="否" style="edgeLabel;html=1;align=center;verticalAlign=middle;resizable=0;points=[];fontSize=12;fontFamily=Helvetica;fontColor=default;" vertex="1" connectable="0" parent="eVq_5vU3gRNtWS-iG7IX-24">
          <mxGeometry x="-0.3516" y="1" relative="1" as="geometry">
            <mxPoint as="offset" />
          </mxGeometry>
        </mxCell>
        <mxCell id="eVq_5vU3gRNtWS-iG7IX-8" value="是否超过允许尺寸" style="rhombus;whiteSpace=wrap;html=1;strokeWidth=2;" vertex="1" parent="1">
          <mxGeometry x="1130" y="1080" width="80" height="80" as="geometry" />
        </mxCell>
        <mxCell id="eVq_5vU3gRNtWS-iG7IX-15" value="缺陷结构体保存在v_defect_others" style="whiteSpace=wrap;html=1;strokeWidth=2;" vertex="1" parent="1">
          <mxGeometry x="1395" y="870" width="120" height="60" as="geometry" />
        </mxCell>
        <mxCell id="eVq_5vU3gRNtWS-iG7IX-17" value="v_defect_others保存在vv_defect_others" style="whiteSpace=wrap;html=1;strokeWidth=2;" vertex="1" parent="1">
          <mxGeometry x="825" y="1090" width="120" height="60" as="geometry" />
        </mxCell>
        <mxCell id="eVq_5vU3gRNtWS-iG7IX-20" value="计数+2（NG）" style="whiteSpace=wrap;html=1;strokeWidth=2;" vertex="1" parent="1">
          <mxGeometry x="1270" y="1090" width="120" height="60" as="geometry" />
        </mxCell>
        <mxCell id="eVq_5vU3gRNtWS-iG7IX-23" value="计数+1（根据个数限制判断NG，有的允许一个）" style="whiteSpace=wrap;html=1;strokeWidth=2;" vertex="1" parent="1">
          <mxGeometry x="1110" y="1250" width="120" height="60" as="geometry" />
        </mxCell>
      </root>
    </mxGraphModel>
  </diagram>
</mxfile>
